<mxfile host="app.diagrams.net" agent="Mozilla/5.0 (X11; Linux x86_64) AppleWebKit/537.36 (KHTML, like Gecko) Chrome/140.0.0.0 Safari/537.36" version="28.2.5" pages="4">
  <diagram name="wholeView" id="3S6XJKJ3KVBynEYDvlT0">
    <mxGraphModel dx="962" dy="532" grid="1" gridSize="10" guides="1" tooltips="1" connect="1" arrows="1" fold="1" page="1" pageScale="1" pageWidth="827" pageHeight="1169" math="0" shadow="0">
      <root>
        <mxCell id="0" />
        <mxCell id="1" parent="0" />
        <mxCell id="lnIoNTT7ezFsHZvJR7bg-5" style="edgeStyle=orthogonalEdgeStyle;rounded=0;orthogonalLoop=1;jettySize=auto;html=1;" parent="1" source="lnIoNTT7ezFsHZvJR7bg-1" target="lnIoNTT7ezFsHZvJR7bg-2" edge="1">
          <mxGeometry relative="1" as="geometry" />
        </mxCell>
        <mxCell id="lnIoNTT7ezFsHZvJR7bg-6" style="edgeStyle=orthogonalEdgeStyle;rounded=0;orthogonalLoop=1;jettySize=auto;html=1;entryX=0.5;entryY=0;entryDx=0;entryDy=0;" parent="1" source="lnIoNTT7ezFsHZvJR7bg-1" target="lnIoNTT7ezFsHZvJR7bg-3" edge="1">
          <mxGeometry relative="1" as="geometry" />
        </mxCell>
        <mxCell id="lnIoNTT7ezFsHZvJR7bg-1" value="Frontend" style="rounded=0;whiteSpace=wrap;html=1;" parent="1" vertex="1">
          <mxGeometry x="270" y="130" width="120" height="60" as="geometry" />
        </mxCell>
        <mxCell id="lnIoNTT7ezFsHZvJR7bg-7" style="edgeStyle=orthogonalEdgeStyle;rounded=0;orthogonalLoop=1;jettySize=auto;html=1;" parent="1" source="lnIoNTT7ezFsHZvJR7bg-2" edge="1">
          <mxGeometry relative="1" as="geometry">
            <mxPoint x="330" y="190" as="targetPoint" />
            <Array as="points">
              <mxPoint x="250" y="230" />
              <mxPoint x="330" y="230" />
            </Array>
          </mxGeometry>
        </mxCell>
        <mxCell id="lnIoNTT7ezFsHZvJR7bg-2" value="clientside backend" style="rounded=0;whiteSpace=wrap;html=1;" parent="1" vertex="1">
          <mxGeometry x="190" y="270" width="120" height="60" as="geometry" />
        </mxCell>
        <mxCell id="lnIoNTT7ezFsHZvJR7bg-8" style="edgeStyle=orthogonalEdgeStyle;rounded=0;orthogonalLoop=1;jettySize=auto;html=1;" parent="1" source="lnIoNTT7ezFsHZvJR7bg-3" edge="1">
          <mxGeometry relative="1" as="geometry">
            <mxPoint x="330" y="190" as="targetPoint" />
            <Array as="points">
              <mxPoint x="414" y="230" />
              <mxPoint x="330" y="230" />
            </Array>
          </mxGeometry>
        </mxCell>
        <mxCell id="lnIoNTT7ezFsHZvJR7bg-9" style="edgeStyle=orthogonalEdgeStyle;rounded=0;orthogonalLoop=1;jettySize=auto;html=1;entryX=0;entryY=0.5;entryDx=0;entryDy=0;" parent="1" source="lnIoNTT7ezFsHZvJR7bg-3" target="lnIoNTT7ezFsHZvJR7bg-4" edge="1">
          <mxGeometry relative="1" as="geometry" />
        </mxCell>
        <mxCell id="lnIoNTT7ezFsHZvJR7bg-3" value="dataserver backend" style="rounded=0;whiteSpace=wrap;html=1;" parent="1" vertex="1">
          <mxGeometry x="354" y="270" width="120" height="60" as="geometry" />
        </mxCell>
        <mxCell id="lnIoNTT7ezFsHZvJR7bg-10" style="edgeStyle=orthogonalEdgeStyle;rounded=0;orthogonalLoop=1;jettySize=auto;html=1;entryX=1;entryY=0.5;entryDx=0;entryDy=0;" parent="1" source="lnIoNTT7ezFsHZvJR7bg-4" target="lnIoNTT7ezFsHZvJR7bg-3" edge="1">
          <mxGeometry relative="1" as="geometry" />
        </mxCell>
        <mxCell id="lnIoNTT7ezFsHZvJR7bg-4" value="dataserver backend" style="rounded=0;whiteSpace=wrap;html=1;" parent="1" vertex="1">
          <mxGeometry x="680" y="270" width="120" height="60" as="geometry" />
        </mxCell>
        <mxCell id="lnIoNTT7ezFsHZvJR7bg-11" value="Websocket" style="text;html=1;align=center;verticalAlign=middle;whiteSpace=wrap;rounded=0;" parent="1" vertex="1">
          <mxGeometry x="354" y="210" width="60" height="30" as="geometry" />
        </mxCell>
        <mxCell id="lnIoNTT7ezFsHZvJR7bg-13" value="Websocket" style="text;html=1;align=center;verticalAlign=middle;whiteSpace=wrap;rounded=0;" parent="1" vertex="1">
          <mxGeometry x="550" y="280" width="60" height="30" as="geometry" />
        </mxCell>
        <mxCell id="lnIoNTT7ezFsHZvJR7bg-14" value="Websocket" style="text;html=1;align=center;verticalAlign=middle;whiteSpace=wrap;rounded=0;" parent="1" vertex="1">
          <mxGeometry x="250" y="210" width="60" height="30" as="geometry" />
        </mxCell>
        <mxCell id="lnIoNTT7ezFsHZvJR7bg-15" value="" style="swimlane;startSize=0;" parent="1" vertex="1">
          <mxGeometry x="170" y="100" width="330" height="260" as="geometry" />
        </mxCell>
        <mxCell id="lnIoNTT7ezFsHZvJR7bg-16" value="" style="swimlane;startSize=0;" parent="1" vertex="1">
          <mxGeometry x="665" y="230" width="150" height="130" as="geometry" />
        </mxCell>
        <mxCell id="lnIoNTT7ezFsHZvJR7bg-17" value="&lt;font style=&quot;font-size: 24px;&quot;&gt;Client Side&lt;/font&gt;" style="text;html=1;align=center;verticalAlign=middle;whiteSpace=wrap;rounded=0;" parent="1" vertex="1">
          <mxGeometry x="170" y="70" width="120" height="30" as="geometry" />
        </mxCell>
        <mxCell id="lnIoNTT7ezFsHZvJR7bg-18" value="&lt;font style=&quot;font-size: 24px;&quot;&gt;Remote Location&lt;/font&gt;" style="text;html=1;align=center;verticalAlign=middle;whiteSpace=wrap;rounded=0;" parent="1" vertex="1">
          <mxGeometry x="665" y="200" width="185" height="30" as="geometry" />
        </mxCell>
      </root>
    </mxGraphModel>
  </diagram>
  <diagram id="fcvKa5Z1LRzcdo81uaiL" name="Frontend">
    <mxGraphModel dx="2774" dy="2164" grid="1" gridSize="10" guides="1" tooltips="1" connect="1" arrows="1" fold="1" page="1" pageScale="1" pageWidth="850" pageHeight="1100" math="0" shadow="0">
      <root>
        <mxCell id="0" />
        <mxCell id="1" parent="0" />
        <mxCell id="4m7lzYpiL1pVfkD1IHbV-1" value="&lt;div&gt;window.tsx&lt;/div&gt;" style="whiteSpace=wrap;html=1;" parent="1" vertex="1">
          <mxGeometry x="40" y="165" width="120" height="60" as="geometry" />
        </mxCell>
        <mxCell id="4m7lzYpiL1pVfkD1IHbV-32" style="edgeStyle=orthogonalEdgeStyle;rounded=0;orthogonalLoop=1;jettySize=auto;html=1;entryX=0.5;entryY=0;entryDx=0;entryDy=0;" parent="1" source="4m7lzYpiL1pVfkD1IHbV-2" target="4m7lzYpiL1pVfkD1IHbV-3" edge="1">
          <mxGeometry relative="1" as="geometry" />
        </mxCell>
        <mxCell id="4m7lzYpiL1pVfkD1IHbV-2" value="&lt;div&gt;main.tsx&lt;/div&gt;" style="whiteSpace=wrap;html=1;" parent="1" vertex="1">
          <mxGeometry x="40" y="-15" width="120" height="60" as="geometry" />
        </mxCell>
        <mxCell id="4m7lzYpiL1pVfkD1IHbV-33" style="edgeStyle=orthogonalEdgeStyle;rounded=0;orthogonalLoop=1;jettySize=auto;html=1;" parent="1" source="4m7lzYpiL1pVfkD1IHbV-3" target="4m7lzYpiL1pVfkD1IHbV-1" edge="1">
          <mxGeometry relative="1" as="geometry" />
        </mxCell>
        <mxCell id="4m7lzYpiL1pVfkD1IHbV-3" value="&lt;div&gt;App.tsx&lt;/div&gt;" style="whiteSpace=wrap;html=1;" parent="1" vertex="1">
          <mxGeometry x="40" y="75" width="120" height="60" as="geometry" />
        </mxCell>
        <mxCell id="4m7lzYpiL1pVfkD1IHbV-4" value="&lt;div&gt;ToggleToolsBar.tsx&lt;/div&gt;" style="whiteSpace=wrap;html=1;" parent="1" vertex="1">
          <mxGeometry x="1210" y="450" width="120" height="60" as="geometry" />
        </mxCell>
        <mxCell id="4m7lzYpiL1pVfkD1IHbV-5" value="&lt;div&gt;OverlayWindow.tsx&lt;/div&gt;" style="whiteSpace=wrap;html=1;" parent="1" vertex="1">
          <mxGeometry x="1210" y="520" width="120" height="60" as="geometry" />
        </mxCell>
        <mxCell id="4m7lzYpiL1pVfkD1IHbV-6" value="&lt;div&gt;metadatainfo.tsx&lt;/div&gt;" style="whiteSpace=wrap;html=1;" parent="1" vertex="1">
          <mxGeometry x="1340" y="450" width="120" height="60" as="geometry" />
        </mxCell>
        <mxCell id="4m7lzYpiL1pVfkD1IHbV-7" value="messageBox.tsx" style="whiteSpace=wrap;html=1;" parent="1" vertex="1">
          <mxGeometry x="1340" y="520" width="120" height="60" as="geometry" />
        </mxCell>
        <mxCell id="4m7lzYpiL1pVfkD1IHbV-8" value="&lt;div&gt;Page.tsx&lt;/div&gt;" style="whiteSpace=wrap;html=1;" parent="1" vertex="1">
          <mxGeometry x="30" y="415" width="120" height="60" as="geometry" />
        </mxCell>
        <mxCell id="4m7lzYpiL1pVfkD1IHbV-9" value="&lt;div&gt;selector.tsx&lt;/div&gt;" style="whiteSpace=wrap;html=1;" parent="1" vertex="1">
          <mxGeometry x="310" y="435" width="120" height="60" as="geometry" />
        </mxCell>
        <mxCell id="4m7lzYpiL1pVfkD1IHbV-11" value="&lt;div&gt;common.tsx&lt;/div&gt;" style="whiteSpace=wrap;html=1;" parent="1" vertex="1">
          <mxGeometry x="520" y="810" width="120" height="60" as="geometry" />
        </mxCell>
        <mxCell id="4m7lzYpiL1pVfkD1IHbV-12" value="&lt;div&gt;ColorPalette.tsx&lt;/div&gt;" style="whiteSpace=wrap;html=1;" parent="1" vertex="1">
          <mxGeometry x="-160" y="390" width="120" height="60" as="geometry" />
        </mxCell>
        <mxCell id="4m7lzYpiL1pVfkD1IHbV-13" value="&lt;div&gt;AtoggleableButton.tsx&lt;/div&gt;" style="whiteSpace=wrap;html=1;" parent="1" vertex="1">
          <mxGeometry x="1030" y="130" width="120" height="60" as="geometry" />
        </mxCell>
        <mxCell id="4m7lzYpiL1pVfkD1IHbV-14" value="CloseAllButton.tsx" style="whiteSpace=wrap;html=1;" parent="1" vertex="1">
          <mxGeometry x="1160" y="130" width="120" height="60" as="geometry" />
        </mxCell>
        <mxCell id="4m7lzYpiL1pVfkD1IHbV-15" value="StartButton.tsx" style="whiteSpace=wrap;html=1;" parent="1" vertex="1">
          <mxGeometry x="1290" y="130" width="120" height="60" as="geometry" />
        </mxCell>
        <mxCell id="4m7lzYpiL1pVfkD1IHbV-16" value="&lt;div&gt;create&lt;/div&gt;&lt;div&gt;notebook.tsx&lt;/div&gt;" style="whiteSpace=wrap;html=1;" parent="1" vertex="1">
          <mxGeometry x="250" y="505" width="120" height="60" as="geometry" />
        </mxCell>
        <mxCell id="4m7lzYpiL1pVfkD1IHbV-17" value="&lt;div&gt;create&lt;/div&gt;&lt;div&gt;page.tsx&lt;/div&gt;" style="whiteSpace=wrap;html=1;" parent="1" vertex="1">
          <mxGeometry x="250" y="575" width="120" height="60" as="geometry" />
        </mxCell>
        <mxCell id="4m7lzYpiL1pVfkD1IHbV-18" value="&lt;div&gt;delete&lt;/div&gt;&lt;div&gt;notebook.tsx&lt;/div&gt;" style="whiteSpace=wrap;html=1;" parent="1" vertex="1">
          <mxGeometry x="380" y="505" width="120" height="60" as="geometry" />
        </mxCell>
        <mxCell id="4m7lzYpiL1pVfkD1IHbV-19" value="&lt;div&gt;delete&lt;/div&gt;&lt;div&gt;page.tsx&lt;/div&gt;" style="whiteSpace=wrap;html=1;" parent="1" vertex="1">
          <mxGeometry x="380" y="575" width="120" height="60" as="geometry" />
        </mxCell>
        <mxCell id="4m7lzYpiL1pVfkD1IHbV-21" value="database.tsx" style="whiteSpace=wrap;html=1;" parent="1" vertex="1">
          <mxGeometry x="390" y="810" width="120" height="60" as="geometry" />
        </mxCell>
        <mxCell id="4m7lzYpiL1pVfkD1IHbV-22" value="markdown.tsx" style="whiteSpace=wrap;html=1;" parent="1" vertex="1">
          <mxGeometry x="-130" y="890" width="120" height="60" as="geometry" />
        </mxCell>
        <mxCell id="4m7lzYpiL1pVfkD1IHbV-23" value="&lt;div&gt;free&lt;/div&gt;&lt;div&gt;main.tsx&lt;/div&gt;" style="whiteSpace=wrap;html=1;" parent="1" vertex="1">
          <mxGeometry y="890" width="120" height="60" as="geometry" />
        </mxCell>
        <mxCell id="4m7lzYpiL1pVfkD1IHbV-24" value="&lt;div&gt;free&lt;/div&gt;&lt;div&gt;showItem.tsx&lt;/div&gt;" style="whiteSpace=wrap;html=1;" parent="1" vertex="1">
          <mxGeometry x="200" y="1250" width="120" height="60" as="geometry" />
        </mxCell>
        <mxCell id="4m7lzYpiL1pVfkD1IHbV-25" value="&lt;div&gt;free&lt;/div&gt;&lt;div&gt;element.tsx&lt;/div&gt;" style="whiteSpace=wrap;html=1;" parent="1" vertex="1">
          <mxGeometry x="330" y="1250" width="120" height="60" as="geometry" />
        </mxCell>
        <mxCell id="4m7lzYpiL1pVfkD1IHbV-26" value="&lt;div&gt;free element&lt;/div&gt;&lt;div&gt;textView.tsx&lt;/div&gt;" style="whiteSpace=wrap;html=1;" parent="1" vertex="1">
          <mxGeometry x="270" y="1340" width="120" height="60" as="geometry" />
        </mxCell>
        <mxCell id="4m7lzYpiL1pVfkD1IHbV-28" value="&lt;div&gt;ToggleToolsBar.tsx&lt;/div&gt;" style="whiteSpace=wrap;html=1;" parent="1" vertex="1">
          <mxGeometry x="1160" y="60" width="120" height="60" as="geometry" />
        </mxCell>
        <mxCell id="4m7lzYpiL1pVfkD1IHbV-34" value="&lt;h1 style=&quot;margin-top: 0px;&quot;&gt;window.tsx dependency&lt;/h1&gt;&lt;div style=&quot;color: rgb(204, 204, 204); background-color: rgb(31, 31, 31); font-family: &amp;quot;FiraCode Nerd Font Mono&amp;quot;, monospace, &amp;quot;SauceCodePro NF&amp;quot;, &amp;quot;Droid Sans Mono&amp;quot;, &amp;quot;monospace&amp;quot;, monospace; font-weight: normal; font-size: 14px; line-height: 19px; white-space: pre;&quot;&gt;&lt;div&gt;&lt;span style=&quot;color: rgb(204, 204, 204);&quot;&gt;                &lt;/span&gt;&lt;span style=&quot;color: rgb(128, 128, 128);&quot;&gt;&amp;lt;&lt;/span&gt;&lt;span style=&quot;color: rgb(78, 201, 176);&quot;&gt;ColorPalette&lt;/span&gt;&lt;span style=&quot;color: rgb(128, 128, 128);&quot;&gt;&amp;gt;&amp;lt;/&lt;/span&gt;&lt;span style=&quot;color: rgb(78, 201, 176);&quot;&gt;ColorPalette&lt;/span&gt;&lt;span style=&quot;color: rgb(128, 128, 128);&quot;&gt;&amp;gt;&lt;/span&gt;&lt;/div&gt;&lt;div&gt;&lt;span style=&quot;color: rgb(204, 204, 204);&quot;&gt;                &lt;/span&gt;&lt;span style=&quot;color: rgb(128, 128, 128);&quot;&gt;&amp;lt;&lt;/span&gt;&lt;span style=&quot;color: rgb(78, 201, 176);&quot;&gt;ToggleToolsBar&lt;/span&gt;&lt;span style=&quot;color: rgb(128, 128, 128);&quot;&gt;&amp;gt;&amp;lt;/&lt;/span&gt;&lt;span style=&quot;color: rgb(78, 201, 176);&quot;&gt;ToggleToolsBar&lt;/span&gt;&lt;span style=&quot;color: rgb(128, 128, 128);&quot;&gt;&amp;gt;&lt;/span&gt;&lt;/div&gt;&lt;br&gt;&lt;div&gt;&lt;span style=&quot;color: rgb(204, 204, 204);&quot;&gt;                &lt;/span&gt;&lt;span style=&quot;color: rgb(128, 128, 128);&quot;&gt;&amp;lt;&lt;/span&gt;&lt;span style=&quot;color: rgb(78, 201, 176);&quot;&gt;Page&lt;/span&gt;&lt;span style=&quot;color: rgb(128, 128, 128);&quot;&gt;&amp;gt;&amp;lt;/&lt;/span&gt;&lt;span style=&quot;color: rgb(78, 201, 176);&quot;&gt;Page&lt;/span&gt;&lt;span style=&quot;color: rgb(128, 128, 128);&quot;&gt;&amp;gt;&lt;/span&gt;&lt;/div&gt;&lt;br&gt;&lt;div&gt;&lt;span style=&quot;color: rgb(204, 204, 204);&quot;&gt;                &lt;/span&gt;&lt;span style=&quot;color: rgb(128, 128, 128);&quot;&gt;&amp;lt;&lt;/span&gt;&lt;span style=&quot;color: rgb(78, 201, 176);&quot;&gt;Selector&lt;/span&gt;&lt;span style=&quot;color: rgb(128, 128, 128);&quot;&gt;&amp;gt;&amp;lt;/&lt;/span&gt;&lt;span style=&quot;color: rgb(78, 201, 176);&quot;&gt;Selector&lt;/span&gt;&lt;span style=&quot;color: rgb(128, 128, 128);&quot;&gt;&amp;gt;&lt;/span&gt;&lt;/div&gt;&lt;div&gt;&lt;span style=&quot;color: rgb(204, 204, 204);&quot;&gt;                &lt;/span&gt;&lt;span style=&quot;color: rgb(128, 128, 128);&quot;&gt;&amp;lt;&lt;/span&gt;&lt;span style=&quot;color: rgb(78, 201, 176);&quot;&gt;CreateNotebook&lt;/span&gt;&lt;span style=&quot;color: rgb(128, 128, 128);&quot;&gt;&amp;gt;&amp;lt;/&lt;/span&gt;&lt;span style=&quot;color: rgb(78, 201, 176);&quot;&gt;CreateNotebook&lt;/span&gt;&lt;span style=&quot;color: rgb(128, 128, 128);&quot;&gt;&amp;gt;&lt;/span&gt;&lt;/div&gt;&lt;div&gt;&lt;span style=&quot;color: rgb(204, 204, 204);&quot;&gt;                &lt;/span&gt;&lt;span style=&quot;color: rgb(128, 128, 128);&quot;&gt;&amp;lt;&lt;/span&gt;&lt;span style=&quot;color: rgb(78, 201, 176);&quot;&gt;CreatePage&lt;/span&gt;&lt;span style=&quot;color: rgb(128, 128, 128);&quot;&gt;&amp;gt;&amp;lt;/&lt;/span&gt;&lt;span style=&quot;color: rgb(78, 201, 176);&quot;&gt;CreatePage&lt;/span&gt;&lt;span style=&quot;color: rgb(128, 128, 128);&quot;&gt;&amp;gt;&lt;/span&gt;&lt;/div&gt;&lt;div&gt;&lt;span style=&quot;color: rgb(204, 204, 204);&quot;&gt;                &lt;/span&gt;&lt;span style=&quot;color: rgb(128, 128, 128);&quot;&gt;&amp;lt;&lt;/span&gt;&lt;span style=&quot;color: rgb(78, 201, 176);&quot;&gt;DeleteNotebook&lt;/span&gt;&lt;span style=&quot;color: rgb(128, 128, 128);&quot;&gt;&amp;gt;&amp;lt;/&lt;/span&gt;&lt;span style=&quot;color: rgb(78, 201, 176);&quot;&gt;DeleteNotebook&lt;/span&gt;&lt;span style=&quot;color: rgb(128, 128, 128);&quot;&gt;&amp;gt;&lt;/span&gt;&lt;/div&gt;&lt;div&gt;&lt;span style=&quot;color: rgb(204, 204, 204);&quot;&gt;                &lt;/span&gt;&lt;span style=&quot;color: rgb(128, 128, 128);&quot;&gt;&amp;lt;&lt;/span&gt;&lt;span style=&quot;color: rgb(78, 201, 176);&quot;&gt;DeletePage&lt;/span&gt;&lt;span style=&quot;color: rgb(128, 128, 128);&quot;&gt;&amp;gt;&amp;lt;/&lt;/span&gt;&lt;span style=&quot;color: rgb(78, 201, 176);&quot;&gt;DeletePage&lt;/span&gt;&lt;span style=&quot;color: rgb(128, 128, 128);&quot;&gt;&amp;gt;&lt;/span&gt;&lt;/div&gt;&lt;br&gt;&lt;div&gt;&lt;span style=&quot;color: rgb(204, 204, 204);&quot;&gt;                &lt;/span&gt;&lt;span style=&quot;color: rgb(128, 128, 128);&quot;&gt;&amp;lt;&lt;/span&gt;&lt;span style=&quot;color: rgb(78, 201, 176);&quot;&gt;StartButtonMenu&lt;/span&gt;&lt;span style=&quot;color: rgb(128, 128, 128);&quot;&gt;&amp;gt;&amp;lt;/&lt;/span&gt;&lt;span style=&quot;color: rgb(78, 201, 176);&quot;&gt;StartButtonMenu&lt;/span&gt;&lt;span style=&quot;color: rgb(128, 128, 128);&quot;&gt;&amp;gt;&lt;/span&gt;&lt;span style=&quot;color: rgb(204, 204, 204);&quot;&gt;    &lt;/span&gt;&lt;/div&gt;&lt;/div&gt;&lt;p&gt;&lt;/p&gt;" style="text;html=1;whiteSpace=wrap;overflow=hidden;rounded=0;" parent="1" vertex="1">
          <mxGeometry x="-710" y="60" width="450" height="280" as="geometry" />
        </mxCell>
        <mxCell id="4m7lzYpiL1pVfkD1IHbV-37" value="&lt;div&gt;free&lt;/div&gt;&lt;div&gt;main.tsx&lt;/div&gt;" style="whiteSpace=wrap;html=1;" parent="1" vertex="1">
          <mxGeometry x="260" y="1170" width="120" height="60" as="geometry" />
        </mxCell>
        <mxCell id="4m7lzYpiL1pVfkD1IHbV-40" value="&lt;div&gt;ToggleToolsBar.tsx&lt;/div&gt;" style="whiteSpace=wrap;html=1;" parent="1" vertex="1">
          <mxGeometry x="30" y="485" width="120" height="60" as="geometry" />
        </mxCell>
        <mxCell id="4m7lzYpiL1pVfkD1IHbV-41" value="StartButton.tsx" style="whiteSpace=wrap;html=1;" parent="1" vertex="1">
          <mxGeometry x="30" y="555" width="120" height="60" as="geometry" />
        </mxCell>
        <mxCell id="4m7lzYpiL1pVfkD1IHbV-48" value="&lt;h2&gt;notebooksAndPages&lt;/h2&gt;" style="text;html=1;align=center;verticalAlign=middle;whiteSpace=wrap;rounded=0;" parent="1" vertex="1">
          <mxGeometry x="245" y="400" width="255" height="25" as="geometry" />
        </mxCell>
        <mxCell id="4m7lzYpiL1pVfkD1IHbV-49" value="" style="swimlane;startSize=0;" parent="1" vertex="1">
          <mxGeometry x="230" y="425" width="290" height="230" as="geometry" />
        </mxCell>
        <mxCell id="4m7lzYpiL1pVfkD1IHbV-56" value="" style="swimlane;startSize=0;" parent="1" vertex="1">
          <mxGeometry x="210" y="395" width="540" height="280" as="geometry">
            <mxRectangle x="700" y="470" width="750" height="290" as="alternateBounds" />
          </mxGeometry>
        </mxCell>
        <mxCell id="WthK2qW9gemKC-LmtU-X-1" value="&lt;h2&gt;&lt;ul&gt;&lt;li&gt;files&lt;/li&gt;&lt;li&gt;tags&lt;/li&gt;&lt;li&gt;localserver&lt;/li&gt;&lt;li&gt;remoteserver&lt;/li&gt;&lt;/ul&gt;&lt;/h2&gt;" style="text;html=1;align=left;verticalAlign=middle;whiteSpace=wrap;rounded=0;" vertex="1" parent="4m7lzYpiL1pVfkD1IHbV-56">
          <mxGeometry x="330" y="30" width="180" height="105" as="geometry" />
        </mxCell>
        <mxCell id="4m7lzYpiL1pVfkD1IHbV-61" value="&lt;h1&gt;&lt;br&gt;&lt;/h1&gt;" style="text;html=1;align=center;verticalAlign=middle;resizable=0;autosize=1;strokeColor=none;fillColor=none;" parent="1" vertex="1">
          <mxGeometry x="1125" y="270" width="20" height="70" as="geometry" />
        </mxCell>
        <mxCell id="WthK2qW9gemKC-LmtU-X-4" value="Text" style="text;html=1;align=center;verticalAlign=middle;whiteSpace=wrap;rounded=0;" vertex="1" parent="1">
          <mxGeometry x="310" y="585" width="60" height="30" as="geometry" />
        </mxCell>
        <mxCell id="WthK2qW9gemKC-LmtU-X-6" value="&lt;h1 style=&quot;text-wrap-mode: nowrap;&quot;&gt;Tools&lt;/h1&gt;" style="text;html=1;align=center;verticalAlign=middle;whiteSpace=wrap;rounded=0;" vertex="1" parent="1">
          <mxGeometry x="190" y="360" width="100" height="40" as="geometry" />
        </mxCell>
        <mxCell id="WthK2qW9gemKC-LmtU-X-11" style="edgeStyle=orthogonalEdgeStyle;rounded=0;orthogonalLoop=1;jettySize=auto;html=1;entryX=0.5;entryY=0;entryDx=0;entryDy=0;" edge="1" parent="1" source="WthK2qW9gemKC-LmtU-X-7" target="4m7lzYpiL1pVfkD1IHbV-12">
          <mxGeometry relative="1" as="geometry">
            <Array as="points">
              <mxPoint x="100" y="320" />
              <mxPoint x="-100" y="320" />
            </Array>
          </mxGeometry>
        </mxCell>
        <mxCell id="WthK2qW9gemKC-LmtU-X-16" style="edgeStyle=orthogonalEdgeStyle;rounded=0;orthogonalLoop=1;jettySize=auto;html=1;entryX=0.25;entryY=0;entryDx=0;entryDy=0;" edge="1" parent="1" source="WthK2qW9gemKC-LmtU-X-7" target="4m7lzYpiL1pVfkD1IHbV-56">
          <mxGeometry relative="1" as="geometry">
            <Array as="points">
              <mxPoint x="100" y="320" />
              <mxPoint x="345" y="320" />
            </Array>
          </mxGeometry>
        </mxCell>
        <mxCell id="WthK2qW9gemKC-LmtU-X-7" value="" style="swimlane;startSize=0;" vertex="1" parent="1">
          <mxGeometry x="20" y="-35" width="160" height="280" as="geometry" />
        </mxCell>
        <mxCell id="WthK2qW9gemKC-LmtU-X-8" value="&lt;h1&gt;Init&lt;/h1&gt;" style="text;html=1;align=center;verticalAlign=middle;whiteSpace=wrap;rounded=0;" vertex="1" parent="1">
          <mxGeometry x="10" y="-65" width="60" height="30" as="geometry" />
        </mxCell>
        <mxCell id="WthK2qW9gemKC-LmtU-X-9" value="" style="swimlane;startSize=0;" vertex="1" parent="1">
          <mxGeometry x="10" y="395" width="160" height="240" as="geometry" />
        </mxCell>
        <mxCell id="WthK2qW9gemKC-LmtU-X-10" value="&lt;h1&gt;MainUI&lt;/h1&gt;" style="text;html=1;align=center;verticalAlign=middle;whiteSpace=wrap;rounded=0;" vertex="1" parent="1">
          <mxGeometry x="10" y="365" width="80" height="30" as="geometry" />
        </mxCell>
        <mxCell id="WthK2qW9gemKC-LmtU-X-13" style="edgeStyle=orthogonalEdgeStyle;rounded=0;orthogonalLoop=1;jettySize=auto;html=1;entryX=0.575;entryY=0.009;entryDx=0;entryDy=0;entryPerimeter=0;" edge="1" parent="1" source="WthK2qW9gemKC-LmtU-X-7" target="WthK2qW9gemKC-LmtU-X-9">
          <mxGeometry relative="1" as="geometry" />
        </mxCell>
        <mxCell id="WthK2qW9gemKC-LmtU-X-17" value="&lt;div&gt;Page.tsx&lt;/div&gt;" style="whiteSpace=wrap;html=1;" vertex="1" parent="1">
          <mxGeometry x="-65" y="820" width="120" height="60" as="geometry" />
        </mxCell>
      </root>
    </mxGraphModel>
  </diagram>
  <diagram id="I2AKkK6HF-3GfLw4gzKE" name="backend">
    <mxGraphModel dx="962" dy="532" grid="1" gridSize="10" guides="1" tooltips="1" connect="1" arrows="1" fold="1" page="1" pageScale="1" pageWidth="827" pageHeight="1169" math="0" shadow="0">
      <root>
        <mxCell id="0" />
        <mxCell id="1" parent="0" />
      </root>
    </mxGraphModel>
  </diagram>
  <diagram id="S8BmbLaPqxNg_2MOBbJt" name="network">
    <mxGraphModel dx="1374" dy="760" grid="1" gridSize="10" guides="1" tooltips="1" connect="1" arrows="1" fold="1" page="1" pageScale="1" pageWidth="827" pageHeight="1169" math="0" shadow="0">
      <root>
        <mxCell id="0" />
        <mxCell id="1" parent="0" />
        <mxCell id="YKIdh3Yjhf7Pw7LeHxgp-1" value="&lt;div&gt;Page.tsx&lt;/div&gt;" style="whiteSpace=wrap;html=1;" vertex="1" parent="1">
          <mxGeometry x="80" y="40" width="120" height="60" as="geometry" />
        </mxCell>
        <mxCell id="YKIdh3Yjhf7Pw7LeHxgp-2" value="&lt;div&gt;selector.tsx&lt;/div&gt;" style="whiteSpace=wrap;html=1;" vertex="1" parent="1">
          <mxGeometry x="80" y="170" width="120" height="60" as="geometry" />
        </mxCell>
        <mxCell id="YKIdh3Yjhf7Pw7LeHxgp-3" value="&lt;div&gt;create&lt;/div&gt;&lt;div&gt;notebook.tsx&lt;/div&gt;" style="whiteSpace=wrap;html=1;" vertex="1" parent="1">
          <mxGeometry x="80" y="310" width="120" height="60" as="geometry" />
        </mxCell>
        <mxCell id="YKIdh3Yjhf7Pw7LeHxgp-4" value="&lt;div&gt;create&lt;/div&gt;&lt;div&gt;page.tsx&lt;/div&gt;" style="whiteSpace=wrap;html=1;" vertex="1" parent="1">
          <mxGeometry x="80" y="450" width="120" height="60" as="geometry" />
        </mxCell>
        <mxCell id="YKIdh3Yjhf7Pw7LeHxgp-5" value="&lt;div&gt;delete&lt;/div&gt;&lt;div&gt;notebook.tsx&lt;/div&gt;" style="whiteSpace=wrap;html=1;" vertex="1" parent="1">
          <mxGeometry x="80" y="380" width="120" height="60" as="geometry" />
        </mxCell>
        <mxCell id="YKIdh3Yjhf7Pw7LeHxgp-6" value="&lt;div&gt;delete&lt;/div&gt;&lt;div&gt;page.tsx&lt;/div&gt;" style="whiteSpace=wrap;html=1;" vertex="1" parent="1">
          <mxGeometry x="80" y="524.5" width="120" height="60" as="geometry" />
        </mxCell>
      </root>
    </mxGraphModel>
  </diagram>
</mxfile>
